<mxfile host="app.diagrams.net" modified="2022-04-20T11:49:38.815Z" agent="5.0 (Windows NT 10.0; Win64; x64) AppleWebKit/537.36 (KHTML, like Gecko) Chrome/100.0.4896.127 Safari/537.36 Edg/100.0.1185.44" etag="nTnvOePycTuwWyV9X_2t" version="17.4.6" type="github">
  <diagram id="K864GrMUygYvESggzUKg" name="Page-1">
    <mxGraphModel dx="1203" dy="479" grid="1" gridSize="10" guides="1" tooltips="1" connect="1" arrows="1" fold="1" page="1" pageScale="1" pageWidth="827" pageHeight="1169" math="0" shadow="0">
      <root>
        <mxCell id="0" />
        <mxCell id="1" parent="0" />
        <mxCell id="eUTtyNatGtLHNbHv28Ff-3" value="" style="edgeStyle=orthogonalEdgeStyle;rounded=0;orthogonalLoop=1;jettySize=auto;html=1;" parent="1" source="eUTtyNatGtLHNbHv28Ff-1" target="eUTtyNatGtLHNbHv28Ff-2" edge="1">
          <mxGeometry relative="1" as="geometry" />
        </mxCell>
        <mxCell id="eUTtyNatGtLHNbHv28Ff-1" value="Start" style="strokeWidth=2;html=1;shape=mxgraph.flowchart.terminator;whiteSpace=wrap;" parent="1" vertex="1">
          <mxGeometry x="160" y="100" width="100" height="60" as="geometry" />
        </mxCell>
        <mxCell id="eUTtyNatGtLHNbHv28Ff-5" value="" style="edgeStyle=orthogonalEdgeStyle;rounded=0;orthogonalLoop=1;jettySize=auto;html=1;" parent="1" source="eUTtyNatGtLHNbHv28Ff-2" target="eUTtyNatGtLHNbHv28Ff-4" edge="1">
          <mxGeometry relative="1" as="geometry" />
        </mxCell>
        <mxCell id="eUTtyNatGtLHNbHv28Ff-2" value="买咖啡" style="whiteSpace=wrap;html=1;strokeWidth=2;" parent="1" vertex="1">
          <mxGeometry x="150" y="220" width="120" height="60" as="geometry" />
        </mxCell>
        <mxCell id="eUTtyNatGtLHNbHv28Ff-7" value="" style="edgeStyle=orthogonalEdgeStyle;rounded=0;orthogonalLoop=1;jettySize=auto;html=1;" parent="1" source="eUTtyNatGtLHNbHv28Ff-4" target="eUTtyNatGtLHNbHv28Ff-6" edge="1">
          <mxGeometry relative="1" as="geometry" />
        </mxCell>
        <mxCell id="eUTtyNatGtLHNbHv28Ff-4" value="喝咖啡" style="whiteSpace=wrap;html=1;strokeWidth=2;" parent="1" vertex="1">
          <mxGeometry x="150" y="340" width="120" height="60" as="geometry" />
        </mxCell>
        <mxCell id="eUTtyNatGtLHNbHv28Ff-9" value="否" style="edgeStyle=orthogonalEdgeStyle;rounded=0;orthogonalLoop=1;jettySize=auto;html=1;" parent="1" source="eUTtyNatGtLHNbHv28Ff-6" target="eUTtyNatGtLHNbHv28Ff-8" edge="1">
          <mxGeometry relative="1" as="geometry" />
        </mxCell>
        <mxCell id="vVSnQf0zOyXbJHgwftF6-5" value="是" style="edgeStyle=orthogonalEdgeStyle;rounded=0;orthogonalLoop=1;jettySize=auto;html=1;exitX=0.5;exitY=1;exitDx=0;exitDy=0;" edge="1" parent="1" source="eUTtyNatGtLHNbHv28Ff-6" target="vVSnQf0zOyXbJHgwftF6-4">
          <mxGeometry relative="1" as="geometry" />
        </mxCell>
        <mxCell id="eUTtyNatGtLHNbHv28Ff-6" value="饱了吗？" style="rhombus;whiteSpace=wrap;html=1;strokeWidth=2;" parent="1" vertex="1">
          <mxGeometry x="140" y="450" width="140" height="80" as="geometry" />
        </mxCell>
        <mxCell id="vVSnQf0zOyXbJHgwftF6-6" style="edgeStyle=orthogonalEdgeStyle;rounded=0;orthogonalLoop=1;jettySize=auto;html=1;entryX=1;entryY=0.5;entryDx=0;entryDy=0;" edge="1" parent="1" source="eUTtyNatGtLHNbHv28Ff-8" target="eUTtyNatGtLHNbHv28Ff-4">
          <mxGeometry relative="1" as="geometry">
            <Array as="points">
              <mxPoint x="390" y="370" />
            </Array>
          </mxGeometry>
        </mxCell>
        <mxCell id="eUTtyNatGtLHNbHv28Ff-8" value="续杯" style="whiteSpace=wrap;html=1;strokeWidth=2;" parent="1" vertex="1">
          <mxGeometry x="330" y="460" width="120" height="60" as="geometry" />
        </mxCell>
        <mxCell id="vVSnQf0zOyXbJHgwftF6-4" value="End" style="strokeWidth=2;html=1;shape=mxgraph.flowchart.terminator;whiteSpace=wrap;" vertex="1" parent="1">
          <mxGeometry x="160" y="580" width="100" height="60" as="geometry" />
        </mxCell>
      </root>
    </mxGraphModel>
  </diagram>
</mxfile>
